<svg xmlns="http://www.w3.org/2000/svg" stroke = "white" fill = "whitesmoke" viewBox="0 0 64 80" width="40" height="40" x="0px" y="0px"><g data-name="create outline"><path d="M61,6H53a1,1,0,0,0-1,1H50a1,1,0,0,0-1-1H26a.75.75,0,0,0-.26,0A25,25,0,0,0,4.09,41H4V52H3a1,1,0,0,0-1,1v4a1,1,0,0,0,1,1H23a1,1,0,0,0,1-1V55.81A24.65,24.65,0,0,0,27,56,25,25,0,0,0,50,21.17,1,1,0,0,0,50,21h2a1,1,0,0,0,1,1h8a1,1,0,0,0,1-1V7A1,1,0,0,0,61,6ZM6,44.54A25.26,25.26,0,0,0,13.46,52H6Zm11.9,9.74.1,0V56H16V54h1.2l.06,0ZM10,54v2H8V54Zm2,0h2v2H12ZM4,54H6v2H4Zm18,2H20V55c.66.19,1.32.36,2,.5ZM50,31A23,23,0,0,1,23.09,53.66l-1.18-.23-.24-.06c-.36-.08-.71-.18-1.07-.28L20.36,53a23.32,23.32,0,0,1-2.42-.88A23,23,0,0,1,26,8l.18,0H48V20H34v.06A13.05,13.05,0,1,0,36.36,22h11.8A23,23,0,0,1,50,31ZM34,22.55,33,23.62a9.46,9.46,0,0,0-5-2.07v-1.5A11,11,0,0,1,34,22.55ZM27,34a3,3,0,1,1,3-3A3,3,0,0,1,27,34Zm2.75-7.17A5,5,0,0,0,28,26.1V23.57A7.5,7.5,0,0,1,31.54,25ZM26,26.1a5,5,0,0,0-1.75.73L22.46,25A7.5,7.5,0,0,1,26,23.57Zm-3.17,2.15A5,5,0,0,0,22.1,30H19.57A7.5,7.5,0,0,1,21,26.46ZM22.1,32a5,5,0,0,0,.73,1.75L21,35.54A7.5,7.5,0,0,1,19.57,32Zm2.15,3.17A5,5,0,0,0,26,35.9v2.53A7.5,7.5,0,0,1,22.46,37ZM28,35.9a5,5,0,0,0,1.75-.73L31.54,37A7.5,7.5,0,0,1,28,38.43Zm3.17-2.15A5,5,0,0,0,31.9,32h2.53A7.5,7.5,0,0,1,33,35.54ZM31.9,30a5,5,0,0,0-.73-1.75L33,26.46A7.5,7.5,0,0,1,34.43,30ZM26,21.55a9.46,9.46,0,0,0-5,2.07L20,22.55a11,11,0,0,1,6-2.5ZM18.55,24,19.62,25a9.46,9.46,0,0,0-2.07,5h-1.5A11,11,0,0,1,18.55,24Zm-1,8a9.46,9.46,0,0,0,2.07,5L18.55,38a11,11,0,0,1-2.5-6ZM21,38.38a9.46,9.46,0,0,0,5,2.07V42a11,11,0,0,1-6-2.5Zm7,2.07a9.46,9.46,0,0,0,5-2.07L34,39.45A11,11,0,0,1,28,42ZM35.45,38,34.38,37a9.46,9.46,0,0,0,2.07-5H38A11,11,0,0,1,35.45,38Zm1-8a9.46,9.46,0,0,0-2.07-5L35.45,24A11,11,0,0,1,38,30ZM50,19V9h2V19ZM54,8h2V20H54Zm6,12H58V8h2Z"/><path d="M27,12V10a20.5,20.5,0,0,0-2.22.12l.21,2C25.65,12,26.33,12,27,12Z"/><path d="M23.2,12.38l-.4-2A21.06,21.06,0,0,0,6,31H8A19.05,19.05,0,0,1,23.2,12.38Z"/><path d="M27,50v2a20.5,20.5,0,0,0,2.22-.12l-.21-2C28.35,50,27.67,50,27,50Z"/><path d="M46,31A19.05,19.05,0,0,1,30.8,49.62l.4,2A21.06,21.06,0,0,0,48,31Z"/><rect x="26" y="30" width="2" height="2"/><rect x="44" y="10" width="2" height="2"/><rect x="41" y="24" width="2" height="2"/><rect x="45" y="24" width="2" height="2"/><rect x="34" y="10" width="8" height="2"/><path d="M12.15,41.61a3,3,0,1,0,4.24,4.24h0a3,3,0,0,0,0-4.24A3.06,3.06,0,0,0,12.15,41.61ZM15,44.44a1,1,0,0,1-1.42,0,1,1,0,0,1,0-1.42,1,1,0,0,1,.7-.29A1,1,0,0,1,15,43,1,1,0,0,1,15,44.44Z"/></g></svg>